<svg width="57" height="57" viewBox="0 0 57 57" fill="none" xmlns="http://www.w3.org/2000/svg">
<path d="M28.1099 54.18C42.4693 54.18 54.1099 42.5394 54.1099 28.18C54.1099 13.8206 42.4693 2.17999 28.1099 2.17999C13.7505 2.17999 2.10986 13.8206 2.10986 28.18C2.10986 42.5394 13.7505 54.18 28.1099 54.18Z" stroke="white" stroke-width="2"/>
<path d="M28.1099 55.18C43.0216 55.18 55.1099 43.0917 55.1099 28.18C55.1099 13.2683 43.0216 1.17999 28.1099 1.17999C13.1982 1.17999 1.10986 13.2683 1.10986 28.18C1.10986 43.0917 13.1982 55.18 28.1099 55.18Z" stroke="white" stroke-width="2"/>
<path d="M31.1719 38.134C31.1122 37.4923 31.2003 36.8454 31.4295 36.243C31.6586 35.6407 32.0228 35.0988 32.4939 34.659C33.583 33.6412 34.3361 32.3157 34.6529 30.859C34.8405 29.9664 34.849 29.0455 34.6781 28.1496C34.5072 27.2537 34.1601 26.4006 33.6571 25.6398C33.1541 24.879 32.5051 24.2256 31.7477 23.7174C30.9903 23.2093 30.1396 22.8565 29.2448 22.6795C28.3501 22.5025 27.4291 22.5048 26.5353 22.6864C25.6415 22.8679 24.7926 23.225 24.0378 23.737C23.283 24.249 22.6373 24.9057 22.1381 25.6691C21.639 26.4324 21.2963 27.2873 21.1299 28.184C20.892 29.2843 20.9379 30.4271 21.2635 31.5048C21.5891 32.5824 22.1835 33.5595 22.9909 34.344C23.7961 35.0627 24.3466 36.023 24.5599 37.081C24.6089 37.406 24.6079 37.739 24.6349 38.138C23.7438 37.7732 22.7476 37.7597 21.8469 38.1C21.4931 38.163 21.1292 38.1381 20.7873 38.0274C20.4454 37.9167 20.136 37.7236 19.8863 37.4652C19.6365 37.2068 19.4542 36.8909 19.3552 36.5455C19.2563 36.2 19.2438 35.8355 19.3189 35.484C19.4757 34.9822 19.5606 34.4607 19.5709 33.935C19.5395 33.4027 19.3591 32.8899 19.0501 32.4553C18.7412 32.0207 18.3163 31.6817 17.8239 31.477C17.5348 31.3352 17.2808 31.1312 17.08 30.8795C16.8792 30.6279 16.7366 30.3349 16.6625 30.0215C16.5884 29.7082 16.5846 29.3824 16.6514 29.0674C16.7182 28.7525 16.854 28.4563 17.0489 28.2C17.2561 27.9422 17.5158 27.7315 17.8109 27.582C18.5177 27.2819 19.0783 26.7162 19.3719 26.0067C19.6656 25.2973 19.6688 24.5008 19.3809 23.789C19.2539 23.401 19.2374 22.9854 19.3331 22.5886C19.4289 22.1917 19.6331 21.8294 19.9231 21.542C20.213 21.2546 20.5772 21.0536 20.9749 20.9614C21.3726 20.8693 21.7881 20.8895 22.1749 21.02C22.8795 21.3068 23.669 21.3029 24.3707 21.0093C25.0725 20.7157 25.6295 20.1561 25.9199 19.453C26.1065 19.0913 26.3893 18.788 26.7371 18.5766C27.085 18.3652 27.4844 18.2539 27.8914 18.2549C28.2985 18.256 28.6974 18.3693 29.0441 18.5825C29.3909 18.7956 29.6721 19.1003 29.8569 19.463C30.1501 20.1652 30.7094 20.7227 31.4125 21.0137C32.1155 21.3047 32.9052 21.3055 33.6089 21.016C33.9964 20.8869 34.4123 20.8681 34.8098 20.962C35.2074 21.0558 35.571 21.2584 35.8599 21.5472C36.1488 21.836 36.3515 22.1995 36.4455 22.5971C36.5395 22.9946 36.5209 23.4104 36.3919 23.798C36.1043 24.4939 36.1027 25.275 36.3875 25.972C36.6722 26.669 37.2203 27.2256 37.9129 27.521C38.2864 27.7036 38.6011 27.9875 38.821 28.3404C39.0409 28.6933 39.1571 29.1009 39.1563 29.5167C39.1556 29.9325 39.038 30.3397 38.8168 30.6918C38.5957 31.0439 38.2801 31.3267 37.9059 31.508C37.2239 31.8055 36.6839 32.3562 36.3998 33.0439C36.1157 33.7317 36.1097 34.5029 36.3829 35.195C36.5037 35.534 36.5398 35.8974 36.4881 36.2536C36.4364 36.6097 36.2984 36.9478 36.0861 37.2385C35.8739 37.5291 35.5938 37.7634 35.2703 37.9211C34.9467 38.0788 34.5896 38.1549 34.2299 38.143C34.1093 38.1406 33.9898 38.1207 33.8749 38.084C33.446 37.9023 32.9838 37.8129 32.5181 37.8215C32.0524 37.8301 31.5937 37.9366 31.1719 38.134Z" fill="white"/>
<path d="M24.6199 39.347H31.1509C31.1509 40.366 31.1749 41.373 31.1379 42.378C31.1333 42.4624 31.1114 42.5449 31.0737 42.6205C31.036 42.6962 30.9832 42.7633 30.9185 42.8177C30.8539 42.8721 30.7788 42.9127 30.6978 42.937C30.6169 42.9613 30.5318 42.9688 30.4479 42.959C29.9799 42.959 29.5129 42.959 29.1419 42.959C28.9586 43.2798 28.7399 43.579 28.4899 43.851C28.2786 43.9903 28.0273 44.056 27.7749 44.038C27.2489 44.038 26.9079 43.653 26.7639 42.959C26.2909 42.959 25.8099 42.968 25.3289 42.959C25.2378 42.9658 25.1463 42.9536 25.0603 42.9231C24.9742 42.8925 24.8954 42.8444 24.829 42.7817C24.7626 42.7191 24.7099 42.6433 24.6744 42.5591C24.6389 42.475 24.6214 42.3843 24.6229 42.293C24.6109 41.326 24.6199 40.361 24.6199 39.347Z" fill="white"/>
<path d="M33.9719 18.353C33.9689 18.6406 33.8809 18.9209 33.719 19.1586C33.557 19.3962 33.3283 19.5806 33.0617 19.6885C32.7951 19.7965 32.5025 19.8231 32.2209 19.765C31.9392 19.7069 31.6809 19.5668 31.4788 19.3623C31.2766 19.1577 31.1394 18.8979 31.0847 18.6156C31.0299 18.3332 31.0599 18.041 31.1709 17.7756C31.2819 17.5103 31.4689 17.2838 31.7085 17.1246C31.948 16.9654 32.2293 16.8806 32.5169 16.881C32.7103 16.878 32.9022 16.9141 33.0813 16.9872C33.2603 17.0603 33.4226 17.1689 33.5586 17.3064C33.6945 17.444 33.8013 17.6076 33.8723 17.7875C33.9433 17.9673 33.9772 18.1597 33.9719 18.353Z" fill="white"/>
<path d="M18.1649 24.891C18.1689 25.0841 18.1336 25.2759 18.0612 25.455C17.9888 25.634 17.8808 25.7964 17.7437 25.9324C17.6066 26.0684 17.4433 26.175 17.2637 26.246C17.0841 26.3169 16.8919 26.3506 16.6989 26.345C16.411 26.3432 16.1301 26.2562 15.8916 26.0949C15.6531 25.9336 15.4678 25.7052 15.359 25.4387C15.2501 25.1721 15.2227 24.8793 15.2802 24.5972C15.3377 24.3151 15.4775 24.0563 15.6819 23.8536C15.8863 23.6508 16.1462 23.5132 16.4288 23.458C16.7114 23.4029 17.0039 23.4327 17.2696 23.5437C17.5353 23.6547 17.7621 23.8419 17.9214 24.0817C18.0808 24.3215 18.1655 24.6031 18.1649 24.891Z" fill="white"/>
<path d="M39.0789 32.688C39.3668 32.69 39.6477 32.7772 39.886 32.9387C40.1244 33.1001 40.3096 33.3286 40.4182 33.5953C40.5269 33.8619 40.5541 34.1547 40.4964 34.4368C40.4387 34.7189 40.2988 34.9776 40.0942 35.1802C39.8896 35.3828 39.6297 35.5202 39.347 35.5752C39.0644 35.6301 38.7719 35.6001 38.5063 35.489C38.2407 35.3778 38.014 35.1904 37.8549 34.9505C37.6957 34.7106 37.6111 34.4289 37.6119 34.141C37.61 33.9485 37.6467 33.7575 37.72 33.5795C37.7932 33.4014 37.9014 33.2398 38.0382 33.1044C38.175 32.9689 38.3376 32.8622 38.5163 32.7907C38.6951 32.7192 38.8864 32.6842 39.0789 32.688Z" fill="white"/>
<path d="M23.2399 19.794C22.9532 19.7914 22.6736 19.704 22.4365 19.5428C22.1994 19.3816 22.0153 19.1537 21.9075 18.888C21.7996 18.6223 21.7729 18.3306 21.8306 18.0498C21.8884 17.7689 22.028 17.5114 22.2318 17.3097C22.4357 17.1081 22.6947 16.9713 22.9762 16.9167C23.2577 16.862 23.5491 16.892 23.8136 17.0027C24.0781 17.1134 24.3039 17.3 24.4625 17.5389C24.6212 17.7778 24.7055 18.0583 24.7049 18.345C24.7103 18.5381 24.6759 18.7303 24.604 18.9095C24.532 19.0888 24.424 19.2514 24.2867 19.3873C24.1493 19.5231 23.9856 19.6293 23.8055 19.6993C23.6255 19.7692 23.4329 19.8015 23.2399 19.794Z" fill="white"/>
<path d="M37.6109 24.845C37.6183 24.5583 37.7103 24.2803 37.8755 24.0459C38.0407 23.8115 38.2716 23.6312 38.5391 23.5279C38.8066 23.4245 39.0987 23.4027 39.3786 23.4651C39.6585 23.5276 39.9136 23.6715 40.1118 23.8787C40.31 24.086 40.4424 24.3473 40.4923 24.6297C40.5422 24.912 40.5073 25.2029 40.3922 25.4655C40.277 25.7281 40.0866 25.9507 39.8451 26.1053C39.6035 26.2599 39.3216 26.3394 39.0349 26.334C38.842 26.3352 38.6509 26.297 38.4733 26.2218C38.2957 26.1465 38.1353 26.0358 38.002 25.8964C37.8687 25.757 37.7652 25.5919 37.698 25.4111C37.6307 25.2303 37.6011 25.0377 37.6109 24.845Z" fill="white"/>
<path d="M18.1649 34.163C18.1625 34.4497 18.0753 34.7294 17.9142 34.9666C17.7532 35.2038 17.5255 35.3881 17.2598 35.4961C16.9942 35.6041 16.7025 35.631 16.4216 35.5735C16.1407 35.5159 15.8831 35.3765 15.6813 35.1728C15.4795 34.969 15.3426 34.7101 15.2877 34.4287C15.2329 34.1472 15.2626 33.8558 15.3732 33.5912C15.4837 33.3266 15.6702 33.1007 15.9089 32.9419C16.1477 32.7831 16.4282 32.6986 16.7149 32.699C16.908 32.6935 17.1002 32.7278 17.2795 32.7996C17.4588 32.8714 17.6215 32.9792 17.7574 33.1165C17.8934 33.2537 17.9997 33.4174 18.0698 33.5975C18.1399 33.7775 18.1722 33.97 18.1649 34.163Z" fill="white"/>
<path d="M27.9119 14.983C28.1275 14.9877 28.3369 15.0563 28.5134 15.1802C28.6899 15.3041 28.8256 15.4777 28.9033 15.6789C28.981 15.8801 28.9971 16.0998 28.9497 16.3102C28.9022 16.5205 28.7933 16.7121 28.6368 16.8604C28.4803 17.0088 28.2832 17.1073 28.0706 17.1434C27.8579 17.1795 27.6394 17.1516 27.4427 17.0633C27.2459 16.9749 27.0799 16.8301 26.9656 16.6472C26.8513 16.4643 26.794 16.2516 26.8009 16.036C26.8021 15.8931 26.8321 15.7519 26.8891 15.6209C26.9461 15.4899 27.0289 15.3717 27.1326 15.2734C27.2363 15.1751 27.3588 15.0987 27.4927 15.0488C27.6266 14.9989 27.7692 14.9766 27.9119 14.983Z" fill="white"/>
<path d="M13.3539 29.487C13.3596 29.2712 13.4294 29.0619 13.5543 28.8857C13.6792 28.7096 13.8537 28.5746 14.0555 28.4979C14.2574 28.4212 14.4774 28.4062 14.6878 28.4548C14.8982 28.5034 15.0894 28.6135 15.237 28.7711C15.3847 28.9286 15.4822 29.1265 15.5172 29.3396C15.5521 29.5527 15.5229 29.7713 15.4333 29.9678C15.3437 30.1642 15.1977 30.3296 15.0139 30.4429C14.83 30.5562 14.6167 30.6123 14.4009 30.604C14.2579 30.6025 14.1166 30.572 13.9857 30.5144C13.8547 30.4568 13.7368 30.3734 13.639 30.269C13.5412 30.1646 13.4655 30.0415 13.4165 29.9072C13.3675 29.7728 13.3462 29.6298 13.3539 29.487Z" fill="white"/>
<path d="M42.4229 29.524C42.4207 29.7397 42.3545 29.9499 42.2326 30.1279C42.1108 30.3059 41.9388 30.4437 41.7386 30.5239C41.5383 30.604 41.3187 30.6229 41.1077 30.5781C40.8967 30.5333 40.7038 30.4268 40.5534 30.2722C40.4029 30.1175 40.3019 29.9217 40.2629 29.7095C40.2239 29.4974 40.2488 29.2784 40.3345 29.0804C40.4201 28.8825 40.5627 28.7144 40.744 28.5975C40.9253 28.4806 41.1372 28.4203 41.3529 28.424C41.4963 28.423 41.6384 28.451 41.7706 28.5063C41.9029 28.5616 42.0226 28.643 42.1225 28.7458C42.2225 28.8485 42.3006 28.9705 42.3522 29.1042C42.4039 29.2379 42.4279 29.3807 42.4229 29.524Z" fill="white"/>
<path d="M19.4749 20.033C19.4724 20.1763 19.4417 20.3177 19.3845 20.449C19.3273 20.5804 19.2447 20.6992 19.1415 20.7986C19.0383 20.898 18.9165 20.9761 18.783 21.0283C18.6496 21.0805 18.5072 21.1059 18.3639 21.103C18.0742 21.0991 17.7976 20.9816 17.5936 20.7759C17.3896 20.5702 17.2744 20.2927 17.2729 20.003C17.2792 19.7061 17.4027 19.4238 17.6165 19.2177C17.8303 19.0116 18.117 18.8984 18.4139 18.903C18.7035 18.915 18.9768 19.04 19.1752 19.2513C19.3736 19.4626 19.4812 19.7433 19.4749 20.033Z" fill="white"/>
<path d="M37.3929 21.104C37.1037 21.1045 36.8262 20.9902 36.6212 20.7862C36.4163 20.5822 36.3007 20.3052 36.2999 20.016C36.2977 19.7258 36.4095 19.4464 36.6114 19.2378C36.8132 19.0293 37.0888 18.9084 37.3789 18.901C37.5262 18.9006 37.6721 18.9293 37.8083 18.9853C37.9446 19.0413 38.0684 19.1237 38.1728 19.2276C38.2772 19.3315 38.3601 19.455 38.4167 19.5909C38.4734 19.7269 38.5026 19.8727 38.5029 20.02C38.4969 20.3101 38.3772 20.5863 38.1696 20.789C37.962 20.9917 37.6831 21.1049 37.3929 21.104Z" fill="white"/>
<path d="M19.4749 39.027C19.4731 39.3163 19.3581 39.5934 19.1546 39.799C18.9511 40.0046 18.6752 40.1223 18.3859 40.127C18.0886 40.1246 17.8043 40.0044 17.5955 39.7928C17.3867 39.5812 17.2703 39.2953 17.2719 38.998C17.2805 38.7079 17.4027 38.4328 17.6122 38.2319C17.8217 38.031 18.1017 37.9205 18.3919 37.924C18.5355 37.9249 18.6776 37.9542 18.8099 38.0102C18.9422 38.0662 19.0621 38.1478 19.1627 38.2503C19.2634 38.3528 19.3428 38.4742 19.3964 38.6075C19.4499 38.7408 19.4766 38.8833 19.4749 39.027Z" fill="white"/>
<path d="M36.3009 39.048C36.297 38.9047 36.3216 38.762 36.3732 38.6282C36.4249 38.4945 36.5025 38.3723 36.6016 38.2687C36.7007 38.1651 36.8194 38.0822 36.9508 38.0248C37.0821 37.9673 37.2235 37.9365 37.3669 37.934C37.6568 37.9264 37.9382 38.0328 38.1504 38.2305C38.3627 38.4282 38.4889 38.7012 38.5019 38.991C38.5075 39.2886 38.3949 39.5763 38.1886 39.791C37.9824 40.0056 37.6995 40.1297 37.4019 40.136C37.1125 40.1347 36.8352 40.0201 36.6293 39.8167C36.4235 39.6133 36.3056 39.3373 36.3009 39.048Z" fill="white"/>
<path d="M39.6979 18.43C39.5996 18.4279 39.5027 18.406 39.413 18.3658C39.3232 18.3256 39.2425 18.2678 39.1754 18.1958C39.1084 18.1238 39.0565 18.0392 39.0227 17.9468C38.989 17.8544 38.9741 17.7562 38.9789 17.658C38.9806 17.5632 39.0015 17.4697 39.0405 17.3832C39.0794 17.2967 39.1355 17.219 39.2053 17.1548C39.2752 17.0907 39.3573 17.0414 39.4468 17.01C39.5363 16.9785 39.6313 16.9656 39.7259 16.972C39.8243 16.9691 39.9222 16.9873 40.013 17.0251C40.1039 17.063 40.1856 17.1197 40.2529 17.1916C40.3201 17.2635 40.3713 17.3488 40.403 17.442C40.4348 17.5352 40.4463 17.634 40.4369 17.732C40.435 17.8266 40.4142 17.9199 40.3759 18.0064C40.3376 18.0929 40.2824 18.1709 40.2136 18.2358C40.1449 18.3008 40.0638 18.3514 39.9753 18.3848C39.8868 18.4181 39.7924 18.4335 39.6979 18.43Z" fill="white"/>
<path d="M21.8979 14.349C21.9963 14.3472 22.0941 14.3657 22.1851 14.4034C22.2761 14.441 22.3583 14.497 22.4267 14.5679C22.4951 14.6387 22.5482 14.7228 22.5826 14.8151C22.6171 14.9073 22.6321 15.0057 22.6269 15.104C22.6295 15.1983 22.6126 15.2921 22.5771 15.3794C22.5417 15.4668 22.4885 15.5459 22.4209 15.6117C22.3533 15.6775 22.2729 15.7285 22.1846 15.7616C22.0963 15.7947 22.0021 15.8092 21.9079 15.804C21.8135 15.8094 21.719 15.7956 21.6301 15.7635C21.5411 15.7314 21.4596 15.6816 21.3905 15.6171C21.3213 15.5526 21.2659 15.4748 21.2277 15.3884C21.1894 15.3019 21.1691 15.2085 21.1679 15.114C21.1644 14.9161 21.2391 14.7247 21.3757 14.5815C21.5124 14.4383 21.7 14.3548 21.8979 14.349Z" fill="white"/>
<path d="M34.5959 15.081C34.5981 15.1796 34.5797 15.2776 34.5419 15.3687C34.5041 15.4597 34.4478 15.542 34.3765 15.6101C34.3052 15.6782 34.2205 15.7307 34.1277 15.7643C34.035 15.7978 33.9363 15.8117 33.8379 15.805C33.7436 15.8051 33.6502 15.7861 33.5634 15.7492C33.4766 15.7123 33.3981 15.6582 33.3328 15.5902C33.2674 15.5222 33.2164 15.4417 33.1829 15.3535C33.1495 15.2653 33.1341 15.1713 33.1379 15.077C33.1355 14.983 33.1518 14.8894 33.1857 14.8016C33.2197 14.7139 33.2706 14.6337 33.3357 14.5658C33.4008 14.4978 33.4786 14.4434 33.5648 14.4057C33.651 14.368 33.7438 14.3477 33.8379 14.346C33.9364 14.3426 34.0346 14.3592 34.1266 14.3946C34.2185 14.4301 34.3024 14.4837 34.3732 14.5524C34.444 14.621 34.5001 14.7032 34.5384 14.794C34.5767 14.8848 34.5962 14.9824 34.5959 15.081Z" fill="white"/>
<path d="M42.3039 24.255C42.1106 24.2504 41.927 24.1691 41.7935 24.0291C41.6601 23.8891 41.5877 23.7018 41.5924 23.5085C41.597 23.3152 41.6783 23.1316 41.8183 22.9981C41.9583 22.8647 42.1456 22.7924 42.3389 22.797C42.5293 22.8011 42.7106 22.8792 42.8445 23.0148C42.9783 23.1503 43.0541 23.3325 43.0559 23.523C43.0579 23.6214 43.0397 23.7192 43.0024 23.8102C42.965 23.9013 42.9094 23.9837 42.8389 24.0523C42.7684 24.121 42.6845 24.1744 42.5925 24.2092C42.5004 24.2441 42.4022 24.2597 42.3039 24.255Z" fill="white"/>
<path d="M14.1779 35.513C14.182 35.6071 14.1668 35.701 14.1334 35.7891C14.1 35.8771 14.0489 35.9574 13.9834 36.0251C13.9179 36.0928 13.8393 36.1464 13.7524 36.1826C13.6655 36.2189 13.5721 36.237 13.4779 36.236C13.3797 36.2373 13.2821 36.2192 13.191 36.1825C13.0998 36.1459 13.0168 36.0916 12.9467 36.0226C12.8767 35.9537 12.8211 35.8716 12.783 35.781C12.7449 35.6905 12.7252 35.5932 12.7249 35.495C12.7253 35.4004 12.7443 35.3069 12.7809 35.2197C12.8174 35.1325 12.8708 35.0533 12.9379 34.9868C13.005 34.9202 13.0846 34.8675 13.1721 34.8317C13.2596 34.7958 13.3533 34.7776 13.4479 34.778C13.5459 34.7713 13.6443 34.7857 13.7362 34.8203C13.8282 34.8549 13.9116 34.909 13.9809 34.9787C14.0501 35.0484 14.1035 35.1322 14.1375 35.2244C14.1715 35.3166 14.1853 35.415 14.1779 35.513Z" fill="white"/>
<path d="M39.6989 42.061C39.508 42.061 39.3248 41.9857 39.1891 41.8515C39.0533 41.7173 38.976 41.5349 38.9739 41.344C38.9728 41.2456 38.9915 41.1481 39.0289 41.0571C39.0663 40.9661 39.1217 40.8835 39.1917 40.8144C39.2617 40.7452 39.3448 40.6909 39.4363 40.6546C39.5277 40.6183 39.6255 40.6007 39.7239 40.603C39.9172 40.6065 40.1013 40.6866 40.2356 40.8257C40.3698 40.9649 40.4433 41.1517 40.4399 41.345C40.4364 41.5384 40.3563 41.7224 40.2172 41.8567C40.078 41.991 39.8912 42.0645 39.6979 42.061H39.6989Z" fill="white"/>
<path d="M28.6119 12.78C28.6169 12.9245 28.5786 13.0672 28.5018 13.1897C28.4251 13.3122 28.3135 13.409 28.1814 13.4677C28.0493 13.5263 27.9026 13.5441 27.7603 13.5188C27.618 13.4934 27.4865 13.4262 27.3827 13.3255C27.2789 13.2249 27.2075 13.0955 27.1778 12.9541C27.1481 12.8126 27.1614 12.6654 27.2159 12.5316C27.2704 12.3977 27.3637 12.2831 27.4838 12.2027C27.6039 12.1222 27.7453 12.0795 27.8899 12.08C27.9839 12.0759 28.0778 12.0911 28.1658 12.1245C28.2538 12.158 28.3341 12.209 28.4016 12.2745C28.4692 12.34 28.5227 12.4187 28.5589 12.5056C28.595 12.5925 28.6131 12.6859 28.6119 12.78Z" fill="white"/>
<path d="M16.8009 17.698C16.8032 17.7965 16.7852 17.8945 16.7479 17.9857C16.7106 18.0769 16.6548 18.1594 16.5841 18.2281C16.5134 18.2967 16.4293 18.35 16.337 18.3846C16.2447 18.4191 16.1463 18.4343 16.0479 18.429C15.8612 18.4192 15.6853 18.3382 15.5566 18.2025C15.4279 18.0669 15.3561 17.887 15.3561 17.7C15.3561 17.513 15.4279 17.3331 15.5566 17.1975C15.6853 17.0619 15.8612 16.9808 16.0479 16.971C16.1461 16.9653 16.2444 16.98 16.3366 17.0142C16.4288 17.0484 16.5129 17.1013 16.5836 17.1696C16.6544 17.2379 16.7102 17.3201 16.7476 17.4111C16.785 17.502 16.8031 17.5997 16.8009 17.698Z" fill="white"/>
<path d="M11.9049 29.498C11.9105 29.5965 11.8955 29.6951 11.861 29.7876C11.8265 29.88 11.7731 29.9643 11.7042 30.035C11.6354 30.1057 11.5526 30.1613 11.4612 30.1983C11.3697 30.2353 11.2715 30.2529 11.1729 30.25C11.0298 30.2493 10.8901 30.2066 10.7712 30.1271C10.6523 30.0476 10.5593 29.9349 10.504 29.803C10.4487 29.6711 10.4334 29.5258 10.46 29.3852C10.4867 29.2447 10.5541 29.115 10.6539 29.0125C10.7537 28.91 10.8814 28.8391 11.0212 28.8087C11.161 28.7783 11.3066 28.7896 11.44 28.8414C11.5734 28.8932 11.6886 28.983 11.7712 29.0998C11.8539 29.2165 11.9004 29.355 11.9049 29.498Z" fill="white"/>
<path d="M45.3349 29.524C45.3323 29.6671 45.2877 29.8062 45.2066 29.9241C45.1256 30.0419 45.0116 30.1333 44.8789 30.1869C44.7463 30.2404 44.6008 30.2538 44.4606 30.2252C44.3204 30.1967 44.1917 30.1275 44.0906 30.0264C43.9894 29.9252 43.9202 29.7965 43.8917 29.6563C43.8632 29.5161 43.8765 29.3706 43.93 29.238C43.9836 29.1053 44.075 28.9914 44.1929 28.9103C44.3107 28.8292 44.4499 28.7846 44.5929 28.782C44.6919 28.7759 44.7912 28.7909 44.884 28.826C44.9768 28.8611 45.0611 28.9155 45.1312 28.9857C45.2014 29.0559 45.2558 29.1401 45.291 29.233C45.3261 29.3258 45.3411 29.425 45.3349 29.524Z" fill="white"/>
<path d="M16.0499 42.062C15.9556 42.0621 15.8622 42.0431 15.7754 42.0062C15.6886 41.9693 15.6101 41.9152 15.5448 41.8472C15.4794 41.7792 15.4284 41.6987 15.3949 41.6105C15.3614 41.5223 15.3461 41.4283 15.3499 41.334C15.3507 41.1412 15.4281 40.9566 15.565 40.8208C15.7019 40.685 15.8871 40.6092 16.0799 40.61C16.2727 40.6108 16.4573 40.6882 16.5931 40.8251C16.7289 40.962 16.8047 41.1472 16.8039 41.34C16.8073 41.4385 16.7899 41.5366 16.7527 41.6279C16.7156 41.7192 16.6596 41.8016 16.5884 41.8697C16.5173 41.9379 16.4325 41.9902 16.3397 42.0234C16.2469 42.0565 16.1481 42.0697 16.0499 42.062Z" fill="white"/>
<path d="M42.3369 34.753C42.4354 34.7529 42.5328 34.7731 42.6232 34.8121C42.7136 34.8512 42.795 34.9084 42.8623 34.9802C42.9297 35.052 42.9817 35.1369 43.015 35.2296C43.0483 35.3222 43.0622 35.4207 43.0559 35.519C43.0542 35.6164 43.0331 35.7125 42.9936 35.8016C42.9542 35.8906 42.8973 35.9709 42.8263 36.0376C42.7554 36.1044 42.6717 36.1562 42.5804 36.19C42.489 36.2239 42.3918 36.2391 42.2945 36.2348C42.1972 36.2304 42.1017 36.2066 42.0137 36.1647C41.9258 36.1229 41.8471 36.0638 41.7824 35.991C41.7176 35.9183 41.6681 35.8332 41.6368 35.741C41.6054 35.6487 41.5929 35.5512 41.5999 35.454C41.6022 35.3596 41.6231 35.2665 41.6614 35.1802C41.6998 35.0938 41.7547 35.0159 41.8232 34.9508C41.8916 34.8857 41.9722 34.8347 42.0603 34.8008C42.1485 34.7668 42.2425 34.7506 42.3369 34.753Z" fill="white"/>
<path d="M14.1779 23.542C14.182 23.6404 14.1657 23.7385 14.1298 23.8302C14.0939 23.9219 14.0393 24.0051 13.9695 24.0745C13.8997 24.1439 13.8162 24.1981 13.7243 24.2334C13.6325 24.2688 13.5342 24.2847 13.4359 24.28C13.245 24.2756 13.0634 24.197 12.9296 24.0609C12.7957 23.9248 12.7201 23.7419 12.7189 23.551C12.7194 23.4526 12.7394 23.3552 12.7777 23.2645C12.816 23.1738 12.8718 23.0916 12.9419 23.0225C13.0121 22.9535 13.0952 22.899 13.1865 22.8622C13.2778 22.8254 13.3755 22.8069 13.4739 22.808C13.5686 22.809 13.6622 22.8289 13.7491 22.8666C13.836 22.9042 13.9145 22.9588 13.9801 23.0271C14.0457 23.0955 14.0969 23.1762 14.1309 23.2646C14.1649 23.353 14.1808 23.4473 14.1779 23.542Z" fill="white"/>
</svg>
