<svg width="24" height="16" viewBox="0 0 24 16" fill="none" xmlns="http://www.w3.org/2000/svg">
<path d="M12.5144 11.3386L1.05519 1.75879C0.945644 2.01672 0.879796 2.29109 0.860352 2.57064V13.0353C0.88092 13.7109 1.15958 14.3529 1.63903 14.8294C2.11847 15.3058 2.76225 15.5804 3.43796 15.5967H21.5949C22.2524 15.5734 22.874 15.291 23.3242 14.8112C23.7744 14.3314 24.0166 13.693 23.9979 13.0353V2.57876C24.0092 2.31135 23.9763 2.04391 23.9005 1.78721L12.5144 11.3386Z" fill="#E46C6C"/>
<path d="M12.5144 9.2034L22.9385 0.536954C22.5357 0.287022 22.0687 0.160056 21.5949 0.171624H3.43795C2.97529 0.160672 2.51909 0.281763 2.12276 0.520717L12.5144 9.2034Z" fill="#E46C6C"/>
</svg>
