<svg width="24" height="16" viewBox="0 0 24 16" fill="none" xmlns="http://www.w3.org/2000/svg">
<path d="M7.19363 0.553118C7.82386 0.546326 8.45297 0.607926 9.06991 0.736838C9.58654 0.843134 10.0787 1.04533 10.5208 1.33295C10.9254 1.60775 11.2492 1.9856 11.4589 2.42745C11.6946 2.96022 11.8082 3.53899 11.7912 4.12133C11.8135 4.76331 11.6409 5.39702 11.2961 5.93898C10.9224 6.46065 10.4154 6.8724 9.82825 7.13121C10.6249 7.32666 11.3256 7.80002 11.8042 8.46611C12.2514 9.1505 12.4787 9.95519 12.4557 10.7724C12.4769 11.4253 12.3394 12.0736 12.055 12.6617C11.7901 13.1871 11.401 13.64 10.9214 13.981C10.4274 14.3276 9.87441 14.5815 9.28947 14.7302C8.68096 14.8949 8.05334 14.9783 7.42295 14.9784H0.413574V0.560285H7.19363V0.553118ZM16.9679 12.4402C17.2199 12.6616 17.5131 12.8311 17.8307 12.9389C18.1483 13.0468 18.4841 13.091 18.8188 13.0689C19.3516 13.0834 19.8756 12.9308 20.3172 12.6324C20.6685 12.4219 20.9374 12.0978 21.0795 11.7138H23.6066C23.3244 12.8007 22.6666 13.7527 21.7499 14.4012C20.8491 14.9637 19.8015 15.246 18.74 15.2123C17.9818 15.2237 17.2284 15.091 16.5197 14.8214C15.8873 14.5723 15.3146 14.1927 14.8389 13.7073C14.3735 13.2088 14.0154 12.6201 13.7867 11.9776C13.5356 11.2654 13.4123 10.5144 13.4225 9.75932C13.4152 9.01483 13.5478 8.2756 13.8134 7.58008C14.0543 6.92889 14.4263 6.33408 14.9064 5.83248C15.3864 5.33088 15.9644 4.93319 16.6044 4.66402C17.2892 4.37031 18.0288 4.22616 18.7739 4.2412C19.5793 4.21889 20.3779 4.39449 21.0997 4.75262C21.7378 5.07875 22.2928 5.54677 22.7219 6.12075C23.1579 6.71015 23.4704 7.38159 23.6405 8.09476C23.824 8.85555 23.8931 9.63942 23.8457 10.4206H16.3321C16.3042 11.1566 16.5515 11.8767 17.0259 12.4402L16.9477 12.4695L16.9679 12.4402ZM6.96104 12.4891C7.25857 12.491 7.55544 12.4606 7.84642 12.3985C8.11029 12.3458 8.36267 12.2465 8.59172 12.1053C8.80906 11.9642 8.98455 11.7673 9.09988 11.5353C9.2366 11.2421 9.30031 10.9203 9.28556 10.5971C9.31187 10.3028 9.26902 10.0063 9.16043 9.73146C9.05185 9.4566 8.88052 9.21091 8.66013 9.01401C8.17559 8.68155 7.59556 8.5168 7.0086 8.54494H3.57981V12.5027H6.96104V12.4734V12.4891ZM20.2579 6.96768C20.0423 6.76498 19.7872 6.60897 19.5085 6.50942C19.2298 6.40987 18.9336 6.36893 18.6383 6.38916C18.2453 6.37306 17.8542 6.45289 17.4989 6.62174C17.2181 6.75796 16.9711 6.9549 16.7757 7.19831C16.5992 7.41382 16.4688 7.66328 16.3927 7.93124C16.3254 8.15741 16.2818 8.38992 16.2624 8.62507H20.9159C20.8806 8.0168 20.6472 7.43678 20.2514 6.97355V6.98332L20.2579 6.96768ZM6.78514 6.36506C7.2807 6.38616 7.76958 6.24478 8.17737 5.96244C8.36795 5.80562 8.51702 5.60433 8.61143 5.37631C8.70584 5.14828 8.74271 4.90053 8.71876 4.6549C8.72504 4.3694 8.66482 4.08637 8.54286 3.82816C8.42397 3.62346 8.25607 3.45152 8.05424 3.32781C7.83687 3.20221 7.59844 3.11722 7.35063 3.07699C7.07993 3.02681 6.80506 3.0026 6.52976 3.00467H3.57004V6.36636H6.78514V6.36506ZM15.676 1.51993H21.5082V2.94083H15.676V1.51797V1.51993Z" fill="#E46C6C"/>
</svg>
