<svg width="19" height="18" viewBox="0 0 19 18" fill="none" xmlns="http://www.w3.org/2000/svg">
<path d="M15.7837 15.1407H13.1556V11.0181C13.1556 10.035 13.1354 8.7698 11.7874 8.7698C10.4154 8.7698 10.2063 9.83954 10.2063 10.9458V15.1407H7.5697V6.66288H10.0936V7.81797H10.1274C10.3809 7.38585 10.7466 7.03046 11.1859 6.78956C11.6251 6.54867 12.1214 6.43127 12.622 6.44984C15.2879 6.44984 15.7811 8.2043 15.7811 10.4891V15.1407H15.7837ZM4.5976 5.50258C4.2955 5.50245 4.00022 5.41275 3.74908 5.24483C3.49795 5.07691 3.30223 4.83831 3.18668 4.55917C3.07113 4.28004 3.04093 3.97292 3.0999 3.67662C3.15887 3.38033 3.30436 3.10817 3.51798 2.89456C3.7316 2.68094 4.00376 2.53545 4.30005 2.47648C4.59634 2.41751 4.90346 2.44771 5.1826 2.56326C5.46173 2.67881 5.70034 2.87452 5.86826 3.12566C6.03618 3.37679 6.12587 3.67208 6.126 3.97418C6.12626 4.17496 6.0869 4.37383 6.01018 4.55938C5.93346 4.74493 5.82089 4.91352 5.67892 5.05549C5.53694 5.19747 5.36835 5.31004 5.1828 5.38676C4.99725 5.46348 4.79839 5.50283 4.5976 5.50258ZM5.91687 15.1407H3.27899V6.66288H5.91752L5.91687 15.1407ZM17.0997 9.54276e-05H1.95777C1.78763 -0.00196998 1.61875 0.0295103 1.46078 0.0927375C1.30281 0.155965 1.15885 0.249699 1.03712 0.368585C0.915387 0.487472 0.818277 0.629179 0.751334 0.78561C0.684391 0.942041 0.648929 1.11013 0.646973 1.28027L0.646973 16.4873C0.648929 16.6575 0.684391 16.8256 0.751334 16.982C0.818277 17.1384 0.915387 17.2801 1.03712 17.399C1.15885 17.5179 1.30281 17.6116 1.46078 17.6749C1.61875 17.7381 1.78763 17.7696 1.95777 17.7675H17.0977C17.4416 17.771 17.773 17.6384 18.0195 17.3986C18.266 17.1588 18.4077 16.8312 18.4137 16.4873V1.28027C18.4077 0.9364 18.266 0.608847 18.0195 0.369035C17.773 0.129223 17.4416 -0.00339617 17.0977 9.54276e-05H17.0997Z" fill="#E46C6C"/>
</svg>
