<svg width="18" height="19" viewBox="0 0 18 19" fill="none" xmlns="http://www.w3.org/2000/svg">
<path d="M10.1614 18.2734H6.24218V6.51561H10.1614V8.47524C10.9969 7.41239 12.2638 6.77876 13.6153 6.74783C16.0458 6.76132 18.007 8.73919 18 11.1697V18.2734H14.0807V11.6596C13.924 10.5648 12.985 9.75251 11.8791 9.75488C11.3953 9.77017 10.9387 9.98198 10.6145 10.3414C10.2904 10.7009 10.1268 11.1769 10.1614 11.6596V18.2734ZM4.28254 18.2734H0.363281V6.51561H4.28254V18.2734ZM2.32291 4.55598C1.24064 4.55598 0.363281 3.67862 0.363281 2.59635C0.363281 1.51408 1.24064 0.636719 2.32291 0.636719C3.40519 0.636719 4.28254 1.51408 4.28254 2.59635C4.28254 3.11608 4.07608 3.61452 3.70858 3.98202C3.34108 4.34952 2.84264 4.55598 2.32291 4.55598Z" fill="#FFF7E9"/>
</svg>
