<svg width="57" height="57" viewBox="0 0 57 57" fill="none" xmlns="http://www.w3.org/2000/svg">
<path d="M28.9297 54.18C43.2891 54.18 54.9297 42.5394 54.9297 28.18C54.9297 13.8206 43.2891 2.17999 28.9297 2.17999C14.5703 2.17999 2.92969 13.8206 2.92969 28.18C2.92969 42.5394 14.5703 54.18 28.9297 54.18Z" stroke="white" stroke-width="2"/>
<path d="M28.9297 55.18C43.8414 55.18 55.9297 43.0917 55.9297 28.18C55.9297 13.2683 43.8414 1.17999 28.9297 1.17999C14.018 1.17999 1.92969 13.2683 1.92969 28.18C1.92969 43.0917 14.018 55.18 28.9297 55.18Z" stroke="white" stroke-width="2"/>
<path d="M41.3117 19.382C41.3072 19.0636 41.1782 18.7596 40.9521 18.5352C40.7261 18.3109 40.4211 18.1841 40.1027 18.182H15.5207C15.2018 18.1828 14.8961 18.3092 14.6698 18.5338C14.4435 18.7584 14.3148 19.0632 14.3117 19.382V36.145H10.9297C10.9875 36.5063 11.1414 36.8454 11.3752 37.1269C11.609 37.4084 11.9141 37.6218 12.2587 37.745C13.3574 38.1925 14.5314 38.4264 15.7177 38.434H39.9057C41.0677 38.4416 42.2209 38.2317 43.3057 37.815C43.6663 37.6885 43.986 37.4669 44.231 37.1736C44.476 36.8804 44.6373 36.5263 44.6977 36.149H41.3117V19.382ZM27.8117 18.743C27.8673 18.743 27.9216 18.7595 27.9678 18.7904C28.014 18.8212 28.05 18.8651 28.0713 18.9165C28.0926 18.9678 28.0981 19.0243 28.0873 19.0788C28.0764 19.1333 28.0497 19.1834 28.0104 19.2227C27.9711 19.262 27.921 19.2888 27.8665 19.2996C27.812 19.3104 27.7555 19.3049 27.7042 19.2836C27.6528 19.2623 27.6089 19.2263 27.578 19.1801C27.5472 19.1339 27.5307 19.0796 27.5307 19.024C27.531 18.9496 27.5606 18.8782 27.6133 18.8256C27.6659 18.773 27.7372 18.7433 27.8117 18.743ZM15.5777 19.882H40.0457C40.0831 19.882 40.1189 19.8969 40.1454 19.9233C40.1718 19.9497 40.1867 19.9856 40.1867 20.023V34.879C40.1867 34.9164 40.1718 34.9523 40.1454 34.9787C40.1189 35.0052 40.0831 35.02 40.0457 35.02H15.5777C15.5403 35.02 15.5044 35.0052 15.478 34.9787C15.4515 34.9523 15.4367 34.9164 15.4367 34.879V20.022C15.4363 20.0034 15.4396 19.9849 15.4466 19.9677C15.4535 19.9505 15.4639 19.9348 15.4771 19.9217C15.4903 19.9086 15.506 19.8984 15.5233 19.8915C15.5406 19.8847 15.5591 19.8815 15.5777 19.882ZM30.7857 36.705H24.8377C24.6869 36.6872 24.5439 36.6287 24.4237 36.5359C24.3036 36.4431 24.211 36.3194 24.1557 36.178H31.4687C31.43 36.3295 31.3418 36.4637 31.218 36.5592C31.0942 36.6547 30.942 36.7061 30.7857 36.705Z" fill="white"/>
<path d="M44.9297 20.18H38.9297C38.3774 20.18 37.9297 20.6277 37.9297 21.18V33.18C37.9297 33.7323 38.3774 34.18 38.9297 34.18H44.9297C45.482 34.18 45.9297 33.7323 45.9297 33.18V21.18C45.9297 20.6277 45.482 20.18 44.9297 20.18Z" fill="#A4A4A4"/>
<path d="M45.0397 19.18H38.3607C37.9812 19.18 37.6172 19.3308 37.3488 19.5991C37.0805 19.8675 36.9297 20.2315 36.9297 20.611V33.011C36.9297 33.3905 37.0805 33.7545 37.3488 34.0229C37.6172 34.2912 37.9812 34.442 38.3607 34.442H45.0397C45.2276 34.442 45.4137 34.405 45.5873 34.3331C45.7609 34.2612 45.9187 34.1558 46.0516 34.0229C46.1844 33.89 46.2898 33.7322 46.3618 33.5586C46.4337 33.385 46.4707 33.1989 46.4707 33.011V20.611C46.4707 20.4231 46.4337 20.237 46.3618 20.0634C46.2898 19.8898 46.1844 19.732 46.0516 19.5991C45.9187 19.4663 45.7609 19.3608 45.5873 19.2889C45.4137 19.217 45.2276 19.18 45.0397 19.18ZM41.6997 33.491C41.511 33.491 41.3266 33.4351 41.1697 33.3302C41.0128 33.2254 40.8905 33.0764 40.8183 32.9021C40.7461 32.7278 40.7272 32.5359 40.764 32.3509C40.8008 32.1658 40.8917 31.9958 41.0251 31.8624C41.1585 31.729 41.3285 31.6381 41.5136 31.6013C41.6986 31.5645 41.8904 31.5834 42.0648 31.6556C42.2391 31.7278 42.3881 31.8501 42.4929 32.007C42.5977 32.1639 42.6537 32.3483 42.6537 32.537C42.6538 32.6623 42.6292 32.7864 42.5813 32.9022C42.5334 33.018 42.4632 33.1233 42.3746 33.2119C42.2859 33.3005 42.1807 33.3708 42.0649 33.4187C41.9491 33.4666 41.825 33.4911 41.6997 33.491ZM45.0387 30.271C45.0384 30.3659 45.0006 30.4568 44.9335 30.5239C44.8665 30.5909 44.7756 30.6287 44.6807 30.629H38.7187C38.6238 30.6287 38.5329 30.5909 38.4658 30.5239C38.3988 30.4568 38.361 30.3659 38.3607 30.271V20.971C38.361 20.8761 38.3988 20.7852 38.4658 20.7182C38.5329 20.6511 38.6238 20.6133 38.7187 20.613H44.6817C44.7766 20.6133 44.8675 20.6511 44.9345 20.7182C45.0016 20.7852 45.0394 20.8761 45.0397 20.971L45.0387 30.271Z" fill="white"/>
</svg>
