<svg width="32" height="32" viewBox="0 0 32 32" fill="none" xmlns="http://www.w3.org/2000/svg">
<path d="M29.3206 31.7541C12.8888 31.7774 0.417986 19.1572 0.435565 2.86906C0.435565 1.80536 1.29786 0.938232 2.36156 0.938232H7.44495C8.39942 0.938232 9.21025 1.63954 9.3504 2.58367C9.68631 4.84646 10.3451 7.04935 11.3068 9.12507L11.5047 9.55225C11.7799 10.1462 11.5934 10.852 11.0606 11.2324C9.48637 12.3567 8.88474 14.6196 10.1112 16.3854C11.6502 18.6012 13.5902 20.5408 15.8055 22.0791C17.5712 23.3052 19.8338 22.7037 20.958 21.1297C21.3387 20.5967 22.0448 20.41 22.6392 20.6854L23.0644 20.8823C25.1403 21.8439 27.3433 22.5028 29.6063 22.8386C30.5505 22.9788 31.2515 23.7895 31.2515 24.744V29.8281C31.2515 30.8918 30.3871 31.7541 29.3234 31.7541L29.3206 31.7541Z" fill="#AF4848"/>
</svg>
