<svg width="57" height="57" viewBox="0 0 57 57" fill="none" xmlns="http://www.w3.org/2000/svg">
<path d="M28.75 54.18C43.1094 54.18 54.75 42.5394 54.75 28.18C54.75 13.8206 43.1094 2.17999 28.75 2.17999C14.3906 2.17999 2.75 13.8206 2.75 28.18C2.75 42.5394 14.3906 54.18 28.75 54.18Z" stroke="white" stroke-width="2"/>
<path d="M28.75 55.18C43.6617 55.18 55.75 43.0917 55.75 28.18C55.75 13.2683 43.6617 1.17999 28.75 1.17999C13.8383 1.17999 1.75 13.2683 1.75 28.18C1.75 43.0917 13.8383 55.18 28.75 55.18Z" stroke="white" stroke-width="2"/>
<path d="M43.0179 28.18H14.2319M38.459 18.471L28.7499 28.18L19.0409 18.471M28.7499 14.18V28.121" stroke="white"/>
<path d="M28.754 33.184C29.5847 33.184 30.3967 32.9377 31.0874 32.4762C31.7781 32.0147 32.3164 31.3587 32.6343 30.5913C32.9522 29.8238 33.0354 28.9793 32.8733 28.1646C32.7112 27.3499 32.3112 26.6015 31.7238 26.0141C31.1365 25.4268 30.3881 25.0268 29.5734 24.8647C28.7587 24.7026 27.9142 24.7858 27.1467 25.1037C26.3793 25.4216 25.7233 25.9599 25.2618 26.6506C24.8003 27.3413 24.554 28.1533 24.554 28.984C24.554 30.0979 24.9965 31.1662 25.7842 31.9538C26.5718 32.7415 27.6401 33.184 28.754 33.184ZM28.754 35.284C25.954 35.284 20.354 36.69 20.354 39.484V41.584H37.146V39.484C37.146 36.684 31.554 35.284 28.754 35.284Z" fill="white"/>
<path d="M13.75 31.18C15.4069 31.18 16.75 29.8368 16.75 28.18C16.75 26.5231 15.4069 25.18 13.75 25.18C12.0931 25.18 10.75 26.5231 10.75 28.18C10.75 29.8368 12.0931 31.18 13.75 31.18Z" fill="white"/>
<path d="M28.75 15.18C30.4069 15.18 31.75 13.8368 31.75 12.18C31.75 10.5231 30.4069 9.17999 28.75 9.17999C27.0931 9.17999 25.75 10.5231 25.75 12.18C25.75 13.8368 27.0931 15.18 28.75 15.18Z" fill="white"/>
<path d="M42.75 31.18C44.4069 31.18 45.75 29.8368 45.75 28.18C45.75 26.5231 44.4069 25.18 42.75 25.18C41.0931 25.18 39.75 26.5231 39.75 28.18C39.75 29.8368 41.0931 31.18 42.75 31.18Z" fill="white"/>
<path d="M39.75 20.18C41.4069 20.18 42.75 18.8368 42.75 17.18C42.75 15.5231 41.4069 14.18 39.75 14.18C38.0931 14.18 36.75 15.5231 36.75 17.18C36.75 18.8368 38.0931 20.18 39.75 20.18Z" fill="white"/>
<path d="M17.75 20.18C19.4069 20.18 20.75 18.8368 20.75 17.18C20.75 15.5231 19.4069 14.18 17.75 14.18C16.0931 14.18 14.75 15.5231 14.75 17.18C14.75 18.8368 16.0931 20.18 17.75 20.18Z" fill="white"/>
</svg>
